<svg width="165" height="18" viewBox="0 0 165 18" fill="none" xmlns="http://www.w3.org/2000/svg">
<path d="M3.31127 0.311035H0V3.73973H3.31127V0.311035Z" fill="#201A18"/>
<path d="M12.6697 7.00403V0.311035H15.9693V17.6893H12.6697V10.3153H3.31127V17.6893H0V7.00403H12.6697Z" fill="#201A18"/>
<path d="M34.6626 14.3783V17.6896H20.7717V6.81641H24.083V6.82815H30.048V10.1394H24.083V14.3783H34.6626Z" fill="#201A18"/>
<path d="M34.3691 0.311035H20.7717V3.62231H34.3691V0.311035Z" fill="#201A18"/>
<path d="M56.5969 17.6893H53.0038L51.2073 13.8849H42.4007L40.6041 17.6893H36.9758L40.2519 10.6558H49.669L46.804 4.50296L46.7805 4.53819H43.0935L45.0544 0.311035H48.5183L56.5969 17.6893Z" fill="#201A18"/>
<path d="M75.6427 17.6893H71.8617L68.3156 11.2312H62.9495V17.6893H59.6382V7.91992H70.0299C71.2276 7.91992 72.214 6.98055 72.214 5.86505C72.214 5.05484 71.803 4.32683 71.122 3.91586C70.6758 3.68102 70.4761 3.63405 69.6659 3.63405H59.6382V0.311035H69.3841C71.028 0.311035 71.3685 0.358004 72.3314 0.804203C74.2571 1.68486 75.5135 3.62231 75.5135 5.75937C75.5135 7.32107 74.8325 8.8358 73.6582 9.88085C73.1651 10.327 72.7776 10.5032 71.8617 10.8202L75.6427 17.6893Z" fill="#201A18"/>
<path d="M92.4338 0.311035V3.43443H86.8093V17.6893H83.4981V3.43443H77.8384V0.311035H92.4338Z" fill="#201A18"/>
<path d="M108.814 8.60096C110.012 7.55591 110.528 6.48738 110.528 5.03136C110.528 3.30527 109.542 1.63789 108.11 0.886398C107.276 0.498909 106.419 0.311035 105.221 0.311035H95.3694V3.62231H105.221C106.102 3.62231 106.395 3.66928 106.759 3.96283C107.076 4.19767 107.276 4.62039 107.276 5.03136C107.276 5.58324 107.018 6.12337 106.571 6.48738C106.125 6.8279 105.867 6.87487 104.61 6.87487H95.3577V17.6893H105.961C107.029 17.6893 108.121 17.478 108.802 17.1375C110.282 16.386 111.362 14.5542 111.362 12.7342C111.374 10.9142 110.481 9.48161 108.814 8.60096ZM105.902 14.3781H98.6807V10.1861H104.881C105.843 10.1861 106.266 10.2918 106.888 10.738C107.64 11.2547 108.086 12.0179 108.086 12.8281C108.086 13.8144 107.276 14.3781 105.902 14.3781Z" fill="#201A18"/>
<path d="M129.245 14.3783V17.6896H115.354V6.81641H118.666V6.82815H124.631V10.1394H118.666V14.3783H129.245Z" fill="#201A18"/>
<path d="M128.952 0.311035H115.354V3.62231H128.952V0.311035Z" fill="#201A18"/>
<path d="M151.191 17.6893H147.598L145.79 13.8849H136.983L135.187 17.6893H131.57L134.835 10.6558H144.252L141.387 4.50296L141.375 4.53819H137.676L139.649 0.311035H143.113L151.191 17.6893Z" fill="#201A18"/>
<path d="M165 0.311035V3.43443H159.376V17.6893H156.064V3.43443H150.405V0.311035H165Z" fill="#201A18"/>
</svg>
